<svg width="17" height="20" viewBox="0 0 17 20" fill="none" xmlns="http://www.w3.org/2000/svg">
<path d="M11.8333 5.00033V4.33366C11.8333 3.40024 11.8333 2.93353 11.6517 2.57701C11.4919 2.2634 11.2369 2.00844 10.9233 1.84865C10.5668 1.66699 10.1001 1.66699 9.16667 1.66699H7.83333C6.89991 1.66699 6.4332 1.66699 6.07668 1.84865C5.76308 2.00844 5.50811 2.2634 5.34832 2.57701C5.16667 2.93353 5.16667 3.40024 5.16667 4.33366V5.00033M6.83333 9.58366V13.7503M10.1667 9.58366V13.7503M1 5.00033H16M14.3333 5.00033V14.3337C14.3333 15.7338 14.3333 16.4339 14.0608 16.9686C13.8212 17.439 13.4387 17.8215 12.9683 18.0612C12.4335 18.3337 11.7335 18.3337 10.3333 18.3337H6.66667C5.26654 18.3337 4.56647 18.3337 4.03169 18.0612C3.56129 17.8215 3.17883 17.439 2.93915 16.9686C2.66667 16.4339 2.66667 15.7338 2.66667 14.3337V5.00033" stroke="#475467" stroke-width="1.66667" stroke-linecap="round" stroke-linejoin="round"/>
</svg>
