<svg width="19" height="19" viewBox="0 0 19 19" fill="none" xmlns="http://www.w3.org/2000/svg">
<path d="M1.89637 15.0963C1.93466 14.7517 1.9538 14.5794 2.00594 14.4184C2.05219 14.2755 2.11753 14.1396 2.20021 14.0142C2.29339 13.8729 2.41596 13.7503 2.66112 13.5052L13.6664 2.49992C14.5868 1.57945 16.0792 1.57945 16.9997 2.49993C17.9202 3.4204 17.9202 4.91279 16.9997 5.83326L5.99445 16.8385C5.7493 17.0836 5.62672 17.2062 5.48541 17.2994C5.36005 17.3821 5.22408 17.4474 5.08121 17.4937C4.92018 17.5458 4.74789 17.5649 4.40331 17.6032L1.58301 17.9166L1.89637 15.0963Z" stroke="#475467" stroke-width="1.66667" stroke-linecap="round" stroke-linejoin="round"/>
</svg>
